HIERARCHY
ROOT Hip
{
  OFFSET 0.000000 0.000000 0.000000
  CHANNELS 6 Xposition Yposition Zposition Zrotation Xrotation Yrotation
  JOINT RHip
  {
    OFFSET 0.000000 0.000000 0.000000
    CHANNELS 3 Xposition Yposition Zposition
    End Site
    {
      OFFSET 0.000000 0.100000 0.000000
    }
  }
  JOINT RKnee
  {
    OFFSET 0.000000 0.000000 0.000000
    CHANNELS 3 Xposition Yposition Zposition
    End Site
    {
      OFFSET 0.000000 0.100000 0.000000
    }
  }
  JOINT RFoot
  {
    OFFSET 0.000000 0.000000 0.000000
    CHANNELS 3 Xposition Yposition Zposition
    End Site
    {
      OFFSET 0.000000 0.100000 0.000000
    }
  }
  JOINT LHip
  {
    OFFSET 0.000000 0.000000 0.000000
    CHANNELS 3 Xposition Yposition Zposition
    End Site
    {
      OFFSET 0.000000 0.100000 0.000000
    }
  }
  JOINT LKnee
  {
    OFFSET 0.000000 0.000000 0.000000
    CHANNELS 3 Xposition Yposition Zposition
    End Site
    {
      OFFSET 0.000000 0.100000 0.000000
    }
  }
  JOINT LFoot
  {
    OFFSET 0.000000 0.000000 0.000000
    CHANNELS 3 Xposition Yposition Zposition
    End Site
    {
      OFFSET 0.000000 0.100000 0.000000
    }
  }
  JOINT Spine
  {
    OFFSET 0.000000 0.000000 0.000000
    CHANNELS 3 Xposition Yposition Zposition
    End Site
    {
      OFFSET 0.000000 0.100000 0.000000
    }
  }
  JOINT Thorax
  {
    OFFSET 0.000000 0.000000 0.000000
    CHANNELS 3 Xposition Yposition Zposition
    End Site
    {
      OFFSET 0.000000 0.100000 0.000000
    }
  }
  JOINT Nose
  {
    OFFSET 0.000000 0.000000 0.000000
    CHANNELS 3 Xposition Yposition Zposition
    End Site
    {
      OFFSET 0.000000 0.100000 0.000000
    }
  }
  JOINT Head
  {
    OFFSET 0.000000 0.000000 0.000000
    CHANNELS 3 Xposition Yposition Zposition
    End Site
    {
      OFFSET 0.000000 0.100000 0.000000
    }
  }
  JOINT LShoulder
  {
    OFFSET 0.000000 0.000000 0.000000
    CHANNELS 3 Xposition Yposition Zposition
    End Site
    {
      OFFSET 0.000000 0.100000 0.000000
    }
  }
  JOINT LElbow
  {
    OFFSET 0.000000 0.000000 0.000000
    CHANNELS 3 Xposition Yposition Zposition
    End Site
    {
      OFFSET 0.000000 0.100000 0.000000
    }
  }
  JOINT LWrist
  {
    OFFSET 0.000000 0.000000 0.000000
    CHANNELS 3 Xposition Yposition Zposition
    End Site
    {
      OFFSET 0.000000 0.100000 0.000000
    }
  }
  JOINT RShoulder
  {
    OFFSET 0.000000 0.000000 0.000000
    CHANNELS 3 Xposition Yposition Zposition
    End Site
    {
      OFFSET 0.000000 0.100000 0.000000
    }
  }
  JOINT RElbow
  {
    OFFSET 0.000000 0.000000 0.000000
    CHANNELS 3 Xposition Yposition Zposition
    End Site
    {
      OFFSET 0.000000 0.100000 0.000000
    }
  }
  JOINT RWrist
  {
    OFFSET 0.000000 0.000000 0.000000
    CHANNELS 3 Xposition Yposition Zposition
    End Site
    {
      OFFSET 0.000000 0.100000 0.000000
    }
  }
}
MOTION
Frames: 8
Frame Time: 0.033333
-0.034412 0.950115 0.000032 0.000000 0.000000 0.000000 0.063233 0.008323 0.053608 0.191274 -0.398110 -0.140469 0.171410 -0.851195 -0.273833 -0.063237 -0.008291 -0.053661 0.079463 -0.386012 -0.150316 0.088816 -0.857166 -0.269363 0.031993 0.241109 0.148810 0.078504 0.537709 0.257609 0.147931 0.610625 0.239348 0.096505 0.718771 0.292054 0.028836 0.494428 0.178201 0.193526 0.347963 0.167034 0.224406 0.343674 0.362517 0.138988 0.515749 0.297808 0.280276 0.301585 0.293088 0.338144 0.318495 0.144252
-0.035245 0.949535 0.000033 0.000000 0.000000 0.000000 0.060900 0.009121 0.053733 0.191503 -0.411636 -0.133383 0.177493 -0.870905 -0.272436 -0.060905 -0.009089 -0.053786 0.082390 -0.400630 -0.150772 0.099433 -0.884944 -0.269014 0.035050 0.246372 0.145935 0.085430 0.547928 0.252015 0.158423 0.624711 0.234421 0.110057 0.735424 0.285309 0.037931 0.502712 0.172692 0.210144 0.358223 0.167814 0.237991 0.352068 0.369398 0.142256 0.523752 0.295761 0.287926 0.307290 0.294206 0.344127 0.330194 0.141220
-0.036300 0.948367 0.000032 0.000000 0.000000 0.000000 0.060841 0.009394 0.053022 0.192489 -0.416473 -0.142628 0.181513 -0.874560 -0.288569 -0.060846 -0.009363 -0.053073 0.082031 -0.405888 -0.157778 0.105332 -0.893646 -0.281254 0.037951 0.247375 0.148666 0.091553 0.549178 0.258208 0.167511 0.627475 0.241434 0.122440 0.739014 0.294321 0.044453 0.505502 0.177103 0.229215 0.370802 0.171223 0.251185 0.365304 0.381232 0.147882 0.524991 0.303089 0.301055 0.310022 0.296298 0.357896 0.341968 0.128963
-0.036133 0.946517 0.000032 0.000000 0.000000 0.000000 0.062532 0.009534 0.053179 0.195145 -0.411951 -0.163491 0.182679 -0.861153 -0.317766 -0.062537 -0.009503 -0.053228 0.081047 -0.399707 -0.168798 0.107105 -0.883310 -0.301509 0.040050 0.243963 0.155154 0.095944 0.541644 0.271892 0.174248 0.618777 0.256955 0.131257 0.729583 0.313617 0.047977 0.502786 0.186904 0.250035 0.385406 0.176101 0.261930 0.385603 0.394750 0.154408 0.519466 0.316871 0.319298 0.310930 0.299217 0.378475 0.357412 0.107028
-0.033537 0.943846 0.000034 0.000000 0.000000 0.000000 0.065691 0.010135 0.054751 0.197916 -0.414202 -0.175041 0.182446 -0.857137 -0.333315 -0.065696 -0.010104 -0.054802 0.080418 -0.399192 -0.177944 0.111476 -0.888211 -0.313609 0.040433 0.243209 0.155492 0.097579 0.540445 0.272222 0.176794 0.617965 0.258126 0.134088 0.729292 0.316394 0.046821 0.505624 0.184950 0.261978 0.399130 0.170636 0.269139 0.404026 0.393114 0.159133 0.516951 0.318123 0.331292 0.309190 0.293365 0.387954 0.372379 0.082480
-0.029400 0.940366 0.000036 0.000000 0.000000 0.000000 0.071098 0.010426 0.054746 0.197741 -0.422076 -0.183302 0.178223 -0.862384 -0.338432 -0.071103 -0.010396 -0.054799 0.075081 -0.406322 -0.188201 0.114884 -0.902715 -0.324537 0.038402 0.245422 0.151201 0.094274 0.544839 0.263913 0.171945 0.624246 0.247428 0.128492 0.736311 0.308986 0.037373 0.512937 0.176504 0.259225 0.408330 0.149820 0.271640 0.412143 0.375583 0.161728 0.516933 0.308898 0.329631 0.299286 0.279068 0.381367 0.376721 0.062680
-0.024976 0.936345 0.000036 0.000000 0.000000 0.000000 0.077196 0.010044 0.052240 0.193887 -0.429468 -0.193292 0.169344 -0.867598 -0.343235 -0.077201 -0.010014 -0.052293 0.066022 -0.415438 -0.199865 0.115542 -0.913742 -0.341174 0.035409 0.248165 0.146716 0.088476 0.549175 0.256704 0.163255 0.630115 0.235625 0.119211 0.742257 0.303270 0.023761 0.520348 0.169942 0.249679 0.414368 0.123910 0.273087 0.411837 0.355760 0.163781 0.516193 0.298511 0.319207 0.282303 0.264572 0.369312 0.372308 0.052116
-0.020748 0.932453 0.000034 0.000000 0.000000 0.000000 0.082351 0.009067 0.048759 0.187660 -0.434943 -0.202313 0.157134 -0.870013 -0.347808 -0.082356 -0.009037 -0.048810 0.058112 -0.422721 -0.210370 0.116776 -0.919847 -0.358354 0.033347 0.250113 0.143658 0.084405 0.551769 0.253887 0.156614 0.632595 0.228423 0.112427 0.744601 0.303383 0.012804 0.526888 0.167226 0.241056 0.419132 0.105658 0.277547 0.407799 0.344254 0.166515 0.514248 0.291920 0.306515 0.262413 0.255152 0.358399 0.362549 0.052774
